PathFileType	4	(X/Y/Z)	./resultDataOpenSim/trcMotMarkerGrf/sub10/qtm-01-02.trc
DataRate	CameraRate	NumFrames	NumMarkers	Units	OrigDataRate	OrigDataStartFrame	OrigNumFrames
250.000000	250.000000	11	24	m	250.000000	228	454
Frame#	Time	L.Toe.Tip			R.Toe.Tip			L.Ankle.Lat			R.Ankle.Lat			L.Ankle.Med			R.Ankle.Med			L.Heel			R.Heel			L.Knee.Lat			R.Knee.Lat			L.Knee.Med			R.Knee.Med			L.Thigh.Upper			R.Thigh.Upper			L.ASIS			R.ASIS			V.Sacral			L.Acromium			R.Acromium			C7			L.Elbow			R.Elbow			L.Wrist.Lat			R.Wrist.Lat
		X1	Y1	Z1	X2	Y2	Z2	X3	Y3	Z3	X4	Y4	Z4	X5	Y5	Z5	X6	Y6	Z6	X7	Y7	Z7	X8	Y8	Z8	X9	Y9	Z9	X10	Y10	Z10	X11	Y11	Z11	X12	Y12	Z12	X13	Y13	Z13	X14	Y14	Z14	X15	Y15	Z15	X16	Y16	Z16	X17	Y17	Z17	X18	Y18	Z18	X19	Y19	Z19	X20	Y20	Z20	X21	Y21	Z21	X22	Y22	Z22	X23	Y23	Z23	X24	Y24	Z24

228	0.908	0.09056865	0.042306486	-0.026451257	0.21358995	0.066257902	0.11138563	-0.042147718	0.068418437	-0.064686167	0.074313309	0.10345314	0.11175127	-0.04029461	0.094381224	0.017460911	0.1195594	0.1231166	0.035822256	-0.11108079	0.042682687	-0.024487918	0.036948623	0.080778443	0.051766776	0.029265518	0.44892667	-0.11316753	0.18384956	0.48701568	0.14103156	0.020240019	0.43304882	0.010805056	0.22853049	0.49797957	0.019768884	0.062675802	0.84117356	-0.1896931	0.030614636	0.8690401	0.18385494	0.12244784	0.95159512	-0.12579016	0.10966388	0.96215043	0.11992062	-0.082180021	0.97835025	-0.023463623	0.084211685	1.4333063	-0.15014968	0.039187541	1.4248615	0.17063245	-0.023842827	1.4595485	-0.0075167492	0.01166425	1.0963387	-0.2034515	-0.047892227	1.0823964	0.19779078	0.15338051	0.89580027	-0.22844903	0.098682379	0.88755711	0.2434359
229	0.912	0.090761021	0.042296786	-0.026528289	0.23629502	0.067350463	0.11166779	-0.042212397	0.068613274	-0.064377994	0.095837229	0.099921958	0.11197065	-0.039883127	0.094652753	0.017451772	0.14052357	0.12112521	0.035822243	-0.11111257	0.043132334	-0.024218394	0.059200237	0.076074217	0.051900365	0.030374478	0.4488616	-0.1133312	0.19373164	0.48798603	0.14045278	0.021665034	0.43311549	0.010440652	0.23673416	0.49954069	0.018960021	0.067984762	0.84086663	-0.18983754	0.038366302	0.86988933	0.18404682	0.12832722	0.95121809	-0.12645671	0.1172044	0.9625988	0.11908879	-0.075686594	0.97838655	-0.023095452	0.090684323	1.4334592	-0.1502528	0.045546188	1.4247351	0.17054658	-0.017209004	1.4594895	-0.0078658788	0.021487499	1.0956831	-0.20398336	-0.043771467	1.0831606	0.19768114	0.16653798	0.89759057	-0.22805267	0.099614608	0.88635612	0.24443156
230	0.916	0.090934705	0.042265488	-0.026585972	0.25891767	0.068600945	0.11188932	-0.042286791	0.06882565	-0.064069075	0.11749915	0.096621022	0.11197905	-0.039496341	0.094897089	0.017474692	0.16166946	0.11934013	0.03591244	-0.11106932	0.043471708	-0.023943551	0.081587494	0.071586973	0.052014867	0.031527767	0.44880546	-0.1135225	0.20343232	0.48874667	0.13990934	0.023017016	0.43319879	0.010172029	0.2447807	0.50081301	0.018199339	0.073300688	0.84054309	-0.19003597	0.046195	0.8706487	0.18423427	0.13416254	0.95077561	-0.12708386	0.12464165	0.96289569	0.11825852	-0.069196529	0.9783289	-0.022659106	0.097134059	1.4335132	-0.15036676	0.051877731	1.4245304	0.17046514	-0.010642779	1.4593039	-0.0080678723	0.03183854	1.0948459	-0.20512623	-0.039661445	1.0838555	0.19760694	0.17965322	0.89938319	-0.22763923	0.10052131	0.88514967	0.24542824
231	0.92	0.091057618	0.042207875	-0.026588868	0.28144839	0.070027774	0.11204033	-0.042252541	0.069043354	-0.063877235	0.13927906	0.09359461	0.11184666	-0.039154098	0.09514614	0.01755524	0.18292076	0.11775661	0.036061054	-0.11097873	0.043760538	-0.023635599	0.10408886	0.067337883	0.052145671	0.032768603	0.44878398	-0.1137846	0.21293193	0.48927846	0.13940105	0.024279437	0.43331019	0.010000266	0.25268518	0.50178664	0.017490999	0.07866273	0.84019344	-0.1902218	0.05408481	0.87131008	0.1844133	0.13995648	0.95027025	-0.12767424	0.13191825	0.9630379	0.11741445	-0.062709714	0.97817612	-0.022152722	0.10355711	1.4334704	-0.1504977	0.058192073	1.4242438	0.17037984	-0.0041645309	1.4590325	-0.0080930402	0.041599458	1.0938967	-0.20644425	-0.035553156	1.0844807	0.19754631	0.19269057	0.90117522	-0.22721052	0.1014157	0.88393993	0.24641916
232	0.924	0.091146846	0.042143983	-0.026561107	0.30388062	0.071674837	0.11211257	-0.042069174	0.069270269	-0.063824811	0.16112466	0.090868746	0.11163247	-0.038826667	0.095421661	0.017687226	0.20415687	0.11637626	0.036156424	-0.1108559	0.044050455	-0.023272666	0.12668034	0.063372425	0.052247671	0.034104625	0.44881309	-0.11414179	0.22222705	0.48957083	0.13893092	0.025501989	0.43344371	0.0098684468	0.26044833	0.50246105	0.016849183	0.084072228	0.83981426	-0.19034903	0.062000234	0.87185562	0.18457289	0.14571153	0.94970448	-0.12823052	0.13906918	0.96303567	0.11657133	-0.056226047	0.9779269	-0.02157434	0.10997065	1.4333318	-0.15063448	0.064504002	1.4238722	0.17028589	0.0022831036	1.4586933	-0.0080617876	0.050383756	1.092928	-0.20732897	-0.031437705	1.0850315	0.197491	0.20566164	0.90297594	-0.22676277	0.10230844	0.88272398	0.2473903
233	0.928	0.091238861	0.04209579	-0.026545109	0.32620924	0.073605454	0.11209291	-0.041827381	0.069512789	-0.063793656	0.18299283	0.088421563	0.11133817	-0.038498246	0.095735892	0.01786844	0.2252956	0.11521143	0.036088578	-0.11070674	0.044355507	-0.022842664	0.14934526	0.059740481	0.052220505	0.035478611	0.4488841	-0.11455937	0.23133853	0.48962438	0.13851846	0.026734759	0.43358216	0.0097376679	0.26806693	0.50284185	0.016284433	0.089457152	0.83940632	-0.19044406	0.069867965	0.87226093	0.18468699	0.15143016	0.94908075	-0.12875532	0.14621088	0.96291631	0.11578066	-0.049745447	0.97757992	-0.020921965	0.11638927	1.4330985	-0.15076709	0.070824707	1.4234133	0.1701825	0.0087552905	1.4582813	-0.0080831273	0.058904793	1.091934	-0.20779879	-0.027307692	1.0855001	0.19744006	0.21858372	0.90479294	-0.22629208	0.10320003	0.8814953	0.24833002
234	0.932	0.091349641	0.042069069	-0.026555649	0.34842365	0.075878064	0.11196414	-0.0416319	0.069755737	-0.06366505	0.204839	0.086198591	0.11093531	-0.038171816	0.096090316	0.018103066	0.2462904	0.114281	0.03583238	-0.1105413	0.044669616	-0.02234192	0.17204615	0.056450812	0.052033799	0.036782121	0.44896116	-0.11493694	0.24029003	0.4894507	0.13819457	0.028008507	0.43371286	0.0095991033	0.27554436	0.50293946	0.015798725	0.094732118	0.83897216	-0.19059379	0.077605471	0.87250089	0.18472732	0.15711483	0.94840152	-0.12925128	0.15344418	0.96270454	0.11508941	-0.043267857	0.97713387	-0.020193581	0.12280726	1.432771	-0.15090175	0.077152504	1.4228661	0.17006913	0.015262938	1.4577869	-0.0081803959	0.067926385	1.0908522	-0.20829789	-0.02315689	1.085881	0.19739057	0.23146227	0.90662708	-0.22580157	0.10408457	0.88025067	0.24923449
235	0.936	0.091483835	0.042059075	-0.026591838	0.37050035	0.078520745	0.11170528	-0.041514432	0.069981193	-0.063412206	0.22664625	0.084141731	0.11039364	-0.037842718	0.096470513	0.018388563	0.2671047	0.11360171	0.035437435	-0.11037551	0.044993065	-0.021773492	0.19472711	0.05347306	0.051751471	0.037872	0.4489857	-0.11512475	0.2490816	0.48905538	0.1379791	0.029339346	0.4338346	0.0094578906	0.28289244	0.50276558	0.015392441	0.09987225	0.83851157	-0.19087201	0.085231379	0.87258254	0.18470097	0.16276804	0.94766927	-0.12972101	0.16078358	0.96240635	0.11450281	-0.03679322	0.97658746	-0.019387156	0.12921382	1.4323472	-0.15104774	0.083473153	1.4222301	0.1699479	0.021788996	1.4572011	-0.0083239954	0.077486142	1.0896689	-0.20889683	-0.018988635	1.0861737	0.19733941	0.24429674	0.90847523	-0.22529793	0.10497172	0.8789942	0.25010779
236	0.94	0.091642063	0.042055639	-0.026648369	0.39240203	0.081537553	0.11128138	-0.041458022	0.070195648	-0.063055724	0.24842585	0.082251179	0.10973707	-0.037474328	0.096851407	0.018717793	0.28771199	0.11318009	0.034957025	-0.11022311	0.045337296	-0.021144182	0.21734303	0.050783996	0.051443957	0.038631839	0.44890926	-0.1150016	0.25770112	0.48843108	0.13787659	0.030744216	0.43395318	0.0093238524	0.29012182	0.50232687	0.015069703	0.10492131	0.8380191	-0.19126362	0.092929398	0.87255664	0.18467689	0.16839226	0.9468865	-0.13016712	0.1681861	0.96201435	0.11399593	-0.030321366	0.97593941	-0.018500743	0.1356145	1.4318245	-0.15120229	0.089775852	1.4215047	0.16982498	0.028316328	1.4565176	-0.0084800275	0.087210016	1.0884313	-0.20919552	-0.014830605	1.0863846	0.19729161	0.25708343	0.91033419	-0.22478314	0.1059249	0.87773571	0.25096876
237	0.944	0.091806419	0.042047106	-0.026707119	0.41408359	0.084937762	0.11063798	-0.041436555	0.070416339	-0.062619951	0.27015974	0.08062051	0.10905681	-0.036998139	0.09722351	0.019108081	0.30809888	0.11301708	0.034413021	-0.11008628	0.045713761	-0.020463581	0.23987619	0.048384059	0.051125096	0.039141341	0.44875027	-0.11462562	0.26615355	0.48757693	0.13788504	0.032246312	0.43407145	0.009198663	0.29723073	0.50162305	0.014840601	0.10998513	0.83748889	-0.19164501	0.10089262	0.87246276	0.18472616	0.17399001	0.9460557	-0.13059224	0.17561488	0.96151716	0.11354159	-0.02385184	0.97518829	-0.017532688	0.14202319	1.4312011	-0.15136086	0.096065381	1.4206881	0.16970541	0.034838694	1.4557332	-0.0086343714	0.0968002	1.0871988	-0.20880564	-0.010739052	1.0865266	0.19726037	0.2698201	0.91220319	-0.22425086	0.10707706	0.87648921	0.25185841
238	0.948	0.091946609	0.042031713	-0.026745675	0.43550092	0.088735431	0.10971681	-0.041429971	0.070650363	-0.062135655	0.29178832	0.079356649	0.10843429	-0.036356461	0.097605155	0.019602448	0.32826432	0.11312612	0.033800892	-0.10995689	0.046126865	-0.019745617	0.26232465	0.046285562	0.050763205	0.039716393	0.44859492	-0.11424541	0.27446733	0.48651103	0.13799601	0.033863852	0.43418553	0.0090707592	0.30420566	0.50065045	0.014722493	0.11516992	0.83691688	-0.19188579	0.10905896	0.87226217	0.18481576	0.17956377	0.94517935	-0.13099899	0.18306575	0.9609033	0.11312292	-0.01738386	0.97433255	-0.016481823	0.14844704	1.4304741	-0.15153116	0.10235549	1.4197793	0.16958861	0.041355766	1.4548465	-0.008789497	0.10600338	1.0859954	-0.2077924	-0.0067644652	1.0866108	0.19725461	0.28251509	0.9140832	-0.22368782	0.1085409	0.87526524	0.25281946
